<svg width="17" height="17" viewBox="0 0 17 17" fill="none" xmlns="http://www.w3.org/2000/svg">
<g clip-path="url(#clip0_1_4292)">
<path d="M0.499958 11.7504C0.499451 11.8381 0.516267 11.9251 0.549443 12.0063C0.58262 12.0875 0.631504 12.1614 0.693292 12.2237C0.755267 12.2862 0.829 12.3358 0.91024 12.3696C0.991479 12.4035 1.07862 12.4209 1.16662 12.4209C1.25463 12.4209 1.34177 12.4035 1.42301 12.3696C1.50425 12.3358 1.57798 12.2862 1.63996 12.2237L7.08662 6.77703C7.46162 6.4025 7.96996 6.19213 8.49996 6.19213C9.02996 6.19213 9.53829 6.4025 9.91329 6.77703L15.36 12.2237C15.4855 12.3492 15.6558 12.4198 15.8333 12.4198C16.0108 12.4198 16.1811 12.3492 16.3066 12.2237C16.4322 12.0982 16.5027 11.9279 16.5027 11.7504C16.5027 11.5728 16.4322 11.4026 16.3066 11.277L10.86 5.83037C10.5503 5.51994 10.1825 5.27366 9.77752 5.10562C9.37255 4.93757 8.93841 4.85107 8.49996 4.85107C8.06151 4.85107 7.62737 4.93757 7.2224 5.10562C6.81743 5.27366 6.4496 5.51994 6.13996 5.83037L0.693292 11.277C0.631504 11.3393 0.58262 11.4132 0.549443 11.4944C0.516267 11.5757 0.499451 11.6626 0.499958 11.7504Z" fill="#2D2D2D"/>
</g>
<defs>
<clipPath id="clip0_1_4292">
<rect width="16" height="16" fill="white" transform="matrix(-4.37114e-08 -1 -1 4.37114e-08 16.5 16.417)"/>
</clipPath>
</defs>
</svg>
