<svg width="16" height="16" viewBox="0 0 16 16" fill="none" xmlns="http://www.w3.org/2000/svg">
<path d="M11.0859 1.93323C10.5619 1.48789 10.0119 1.02123 9.45195 0.511893C9.23961 0.319114 8.9877 0.175075 8.71385 0.0898585C8.44001 0.00464206 8.15085 -0.019692 7.86661 0.0185598C7.59114 0.0550441 7.32703 0.151573 7.09295 0.301327C6.85888 0.451081 6.66054 0.650408 6.51195 0.885226C5.71754 2.21311 5.15569 3.66689 4.85061 5.18389C4.73126 5.01106 4.62517 4.82943 4.53328 4.64056C4.43892 4.44175 4.29682 4.26939 4.11965 4.13885C3.94248 4.00831 3.73575 3.92365 3.51791 3.89243C3.30007 3.8612 3.07789 3.88438 2.87119 3.9599C2.66448 4.03542 2.47969 4.16093 2.33328 4.32523C1.21548 5.46816 0.595856 7.00728 0.609947 8.60589C0.594488 10.2389 1.12557 11.8301 2.11869 13.1264C3.11181 14.4228 4.50993 15.3497 6.09061 15.7599C6.69584 15.9122 7.3172 15.991 7.94128 15.9946C7.14377 15.9648 6.37723 15.6781 5.75595 15.1772C5.32555 14.8743 4.96366 14.4843 4.69376 14.0325C4.42386 13.5806 4.25198 13.0771 4.18928 12.5546C4.03595 11.0812 4.78461 9.36589 6.41461 7.45656C6.61016 7.22734 6.85325 7.04342 7.12701 6.91759C7.40078 6.79176 7.69865 6.72703 7.99995 6.72789H8.00661C8.30703 6.72814 8.60378 6.79388 8.87619 6.92053C9.1486 7.04718 9.39013 7.2317 9.58395 7.46123C10.6093 8.67923 11.8326 10.4846 11.8326 12.1686C11.8311 13.139 11.4616 14.0728 10.7985 14.7814C10.1354 15.49 9.22818 15.9207 8.25995 15.9866C10.1744 15.9249 11.9896 15.1204 13.3211 13.7434C14.6526 12.3665 15.3958 10.5253 15.3933 8.60989C15.3899 5.58989 13.3953 3.89656 11.0859 1.93323Z" fill="#FF7534"/>
</svg>
